<svg width="224" height="143" viewBox="0 0 355 291" fill="none" xmlns="http://www.w3.org/2000/svg">
<path d="M176.357 88.0523C178.944 90.9367 180.616 94.522 181.161 98.3546C181.706 102.187 181.1 106.095 179.419 109.584C177.738 113.073 175.059 115.986 171.719 117.955C168.379 119.924 164.529 120.86 160.656 120.645C156.783 120.43 153.061 119.074 149.961 116.748C146.86 114.422 144.521 111.23 143.238 107.577C141.955 103.924 141.787 99.9729 142.754 96.2241C143.721 92.4754 145.781 89.0971 148.672 86.5165C152.547 83.0566 157.641 81.2747 162.833 81.5627C168.025 81.8507 172.89 84.185 176.357 88.0523Z" fill="#D4DEFF"/>
<path d="M170.928 113.227L168.439 110.449C166.815 111.851 164.721 112.833 163.136 113.018L162.147 110.583C164.015 110.294 165.76 109.474 167.175 108.223C169.132 106.476 169.443 104.166 168.033 102.599C166.677 101.086 164.764 101.109 161.986 102.105C158.188 103.515 155.316 103.801 153.171 101.409C151.126 99.1251 151.197 95.9423 153.363 93.2647L150.874 90.473L152.59 88.9458L154.964 91.6148C156.23 90.5026 157.761 89.7322 159.409 89.3768L160.35 91.8089C158.741 92.1222 157.248 92.8718 156.037 93.9755C153.917 95.8681 154.252 97.8491 155.239 98.9481C156.52 100.375 158.182 100.181 161.466 99.0309C165.342 97.6521 168.045 97.8034 170.25 100.25C172.198 102.422 172.507 105.813 170.09 108.813L172.664 111.668L170.928 113.227Z" fill="#E3EAFF"/>
<path d="M46.8209 233.771L39.5929 212.533C39.5929 212.533 26.6326 211.503 18.3062 225.307C13.1576 233.871 0 236.571 0 236.571L7.26527 257.92C7.26527 257.92 24.0927 256.29 29.8276 246.411C35.903 235.949 46.8209 233.771 46.8209 233.771Z" fill="#D4DEFF"/>
<path d="M16.1294 240.89C19.1156 244.378 24.8448 244.387 28.9237 240.91C33.0025 237.433 33.8892 231.776 30.903 228.293C27.9168 224.81 22.1847 224.796 18.1059 228.273C14.027 231.75 13.1432 237.399 16.1294 240.89Z" fill="#E3EAFF"/>
<path d="M266.129 100.147C264.274 104.375 261.204 107.959 257.308 110.445C253.412 112.932 248.865 114.21 244.241 114.118C239.617 114.025 235.125 112.567 231.331 109.926C227.538 107.286 224.615 103.582 222.931 99.2838C221.247 94.9853 220.878 90.285 221.871 85.7773C222.863 81.2696 225.173 77.1569 228.508 73.9592C231.843 70.7615 236.053 68.6225 240.606 67.8127C245.159 67.0028 249.85 67.5584 254.087 69.4094C256.9 70.6384 259.443 72.4084 261.57 74.6184C263.698 76.8283 265.369 79.4348 266.487 82.2891C267.605 85.1434 268.149 88.1896 268.088 91.2536C268.026 94.3177 267.36 97.3397 266.129 100.147Z" fill="#7C9AF2"/>
<path d="M262.305 98.4656C260.261 103.122 256.448 106.778 251.703 108.63C246.959 110.481 241.672 110.375 237.005 108.337C236.01 107.9 235.053 107.38 234.145 106.784C232.652 105.807 231.304 104.626 230.14 103.276C229.707 102.772 229.301 102.247 228.922 101.703C227.013 98.9562 225.857 95.7595 225.569 92.4296C225.28 89.0997 225.869 85.7524 227.276 82.7196C228.684 79.6869 230.862 77.0741 233.593 75.1404C236.325 73.2068 239.516 72.0194 242.849 71.6962C246.183 71.373 249.543 71.9251 252.597 73.2977C255.65 74.6704 258.291 76.8159 260.258 79.5215C262.224 82.2271 263.447 85.3987 263.806 88.7218C264.166 92.0448 263.648 95.4038 262.305 98.4656Z" fill="#92B5F8"/>
<path d="M224.384 189.268C227.853 174.309 218.513 159.375 203.523 155.913C188.533 152.451 173.568 161.771 170.099 176.731C166.63 191.691 175.97 206.625 190.96 210.087C205.951 213.549 220.915 204.228 224.384 189.268Z" fill="#7C9AF2"/>
<path d="M218.206 192.166C217.001 194.913 215.266 197.397 213.099 199.474C210.932 201.552 208.376 203.184 205.577 204.276C202.779 205.368 199.792 205.899 196.787 205.839C193.783 205.779 190.82 205.13 188.067 203.927C184.922 202.554 182.127 200.494 179.886 197.898C179.372 197.295 178.889 196.67 178.439 196.025C175.184 191.371 173.782 185.674 174.507 180.044C175.232 174.414 178.032 169.256 182.361 165.574C186.689 161.893 192.237 159.952 197.921 160.13C203.606 160.308 209.021 162.592 213.109 166.538C213.679 167.08 214.219 167.652 214.728 168.251C217.485 171.514 219.272 175.482 219.887 179.706C220.501 183.93 219.919 188.241 218.206 192.152V192.166Z" fill="#92B5F8"/>
<path d="M339.414 139.939L323.61 182.018L273.909 314.343L268.763 328.045L253.912 322.558L171.523 292.12L209.648 190.904L229.059 139.374L229.285 138.769L284.301 119.578L339.414 139.939Z" fill="#92B5F8"/>
<path d="M266.083 131.424L303.387 145.206C302.591 147.35 302.225 149.63 302.311 151.916C302.397 154.201 302.934 156.447 303.89 158.526C304.846 160.604 306.203 162.474 307.884 164.029C309.565 165.584 311.536 166.794 313.685 167.588L267.278 290.334C265.13 289.538 262.845 289.173 260.554 289.258C258.264 289.344 256.013 289.88 253.93 290.834C251.847 291.788 249.972 293.143 248.414 294.82C246.856 296.498 245.644 298.465 244.848 300.61L207.552 286.865C208.348 284.721 208.714 282.441 208.628 280.155C208.542 277.87 208.005 275.624 207.049 273.545C206.093 271.467 204.736 269.597 203.055 268.042C201.374 266.487 199.403 265.277 197.254 264.483L243.661 141.738C245.811 142.531 248.098 142.894 250.389 142.805C252.68 142.716 254.931 142.177 257.014 141.219C259.096 140.261 260.969 138.903 262.525 137.222C264.081 135.542 265.29 133.571 266.083 131.424Z" fill="#BED2F9"/>
<path d="M266.458 183.691C271.833 185.676 276.498 189.207 279.862 193.838C283.226 198.469 285.138 203.992 285.357 209.707C285.576 215.423 284.092 221.075 281.092 225.949C278.092 230.823 273.712 234.699 268.504 237.088C263.297 239.478 257.496 240.272 251.836 239.371C246.176 238.47 240.911 235.914 236.707 232.027C232.502 228.14 229.547 223.096 228.216 217.532C226.884 211.969 227.235 206.137 229.225 200.772C230.545 197.211 232.556 193.943 235.142 191.157C237.728 188.371 240.838 186.121 244.296 184.535C247.753 182.948 251.49 182.057 255.293 181.913C259.095 181.768 262.889 182.372 266.458 183.691Z" fill="#92B5F8"/>
<path d="M284.3 119.578L262.407 159.099L229.059 139.374L228.498 139.043L229.285 138.769L284.3 119.578Z" fill="#92B5F8"/>
<g style="mix-blend-mode:color-burn" opacity="0.2">
<path d="M224.165 152.574L262.408 159.099L229.059 139.374L224.165 152.574Z" fill="#193F1E"/>
</g>
<g style="mix-blend-mode:color-burn" opacity="0.2">
<path d="M284.301 119.578L262.408 159.099L287.953 120.928L284.301 119.578Z" fill="#193F1E"/>
</g>
<g style="mix-blend-mode:color-burn" opacity="0.2">
<path d="M323.611 182.018L273.909 314.343L253.913 322.547L171.535 292.109L209.649 190.904H227.331C234.01 190.904 239.691 201.223 241.808 215.63L323.611 182.018Z" fill="#193F1E"/>
</g>
<path d="M367.39 170.078L143.502 262.08L182.981 357.763L406.869 265.761L367.39 170.078Z" fill="#92B5F8"/>
<path d="M363.412 206.222L378.555 242.928C376.434 243.798 374.507 245.077 372.882 246.691C371.257 248.305 369.967 250.222 369.085 252.334C368.203 254.446 367.746 256.71 367.742 258.998C367.737 261.286 368.185 263.552 369.058 265.667L209.737 331.131C208.865 329.014 207.584 327.09 205.967 325.468C204.349 323.847 202.428 322.559 200.311 321.679C198.195 320.799 195.925 320.343 193.632 320.339C191.34 320.335 189.069 320.781 186.949 321.654L171.806 284.947C173.926 284.077 175.854 282.798 177.479 281.185C179.104 279.571 180.394 277.653 181.276 275.541C182.158 273.43 182.614 271.165 182.619 268.877C182.623 266.589 182.176 264.323 181.302 262.208L340.624 196.745C341.495 198.861 342.777 200.785 344.394 202.407C346.011 204.029 347.933 205.316 350.05 206.197C352.166 207.077 354.435 207.532 356.728 207.536C359.021 207.541 361.292 207.094 363.412 206.222Z" fill="#BED2F9"/>
<path d="M280.245 290.538C295.833 286.93 305.539 271.393 301.923 255.836C298.307 240.278 282.738 230.593 267.15 234.201C251.561 237.81 241.855 253.347 245.471 268.904C249.088 284.461 264.656 294.147 280.245 290.538Z" fill="#92B5F8"/>
<path d="M238.487 235.555V337.485H134.788V235.555H207.758C207.833 215.174 214.68 198.703 223.118 198.703C231.556 198.703 238.401 215.174 238.475 235.555H238.487Z" fill="#92B5F8"/>
<path d="M223.112 198.851H150.156V313.427H223.112V198.851Z" fill="#BED2F9"/>
<path d="M204.937 281.001C215.045 270.914 215.045 254.559 204.937 244.471C194.829 234.384 178.441 234.384 168.332 244.471C158.224 254.559 158.224 270.914 168.332 281.001C178.441 291.089 194.829 291.089 204.937 281.001Z" fill="#92B5F8"/>
<g style="mix-blend-mode:color-burn" opacity="0.2">
<path d="M238.487 235.555V245.997H134.788V198.703H223.118C231.553 198.703 238.401 215.174 238.475 235.555H238.487Z" fill="#193F1E"/>
</g>
<path d="M223.118 198.703C214.68 198.703 207.832 215.174 207.758 235.555H104.068C104.142 215.174 110.99 198.706 119.428 198.706L223.118 198.703Z" fill="#92B5F8"/>
<path d="M204.405 198.703C200.687 198.703 197.392 202.08 195.501 207.184C189.781 207.326 185.19 211.714 185.19 217.103V217.129H132.765V217.103C132.765 212.153 128.892 208.049 123.833 207.301C125.717 202.131 129.021 198.703 132.783 198.703H204.405Z" fill="#BED2F9"/>
<g style="mix-blend-mode:color-burn" opacity="0.2">
<path d="M134.791 279.118V274.268H386.443L373.566 279.404L134.791 279.118Z" fill="#193F1E"/>
</g>
<path d="M376.501 279.535C373.984 285.264 369.822 290.12 364.541 293.488C359.26 296.857 353.096 298.587 346.829 298.461C340.563 298.334 334.474 296.356 329.334 292.776C324.194 289.196 320.232 284.176 317.951 278.35C315.669 272.524 315.17 266.153 316.516 260.044C317.862 253.935 320.992 248.361 325.512 244.027C330.032 239.693 335.738 236.794 341.909 235.696C348.079 234.598 354.438 235.351 360.18 237.859C363.994 239.525 367.442 241.924 370.327 244.921C373.212 247.917 375.477 251.452 376.993 255.322C378.508 259.192 379.245 263.323 379.161 267.477C379.076 271.632 378.172 275.729 376.501 279.535Z" fill="#7C9AF2"/>
<path d="M371.318 277.268C369.796 280.734 367.534 283.826 364.69 286.328C361.847 288.831 358.49 290.684 354.854 291.757C351.219 292.831 347.392 293.1 343.642 292.545C339.891 291.99 336.308 290.624 333.141 288.544C331.114 287.221 329.285 285.62 327.706 283.788C327.121 283.105 326.57 282.394 326.056 281.656C322.343 276.361 320.741 269.876 321.563 263.466C322.385 257.056 325.571 251.182 330.499 246.991C335.428 242.8 341.745 240.592 348.217 240.799C354.689 241.007 360.851 243.614 365.5 248.112C366.149 248.733 366.765 249.387 367.345 250.073C370.482 253.786 372.515 258.301 373.214 263.107C373.914 267.913 373.252 272.818 371.304 277.268H371.318Z" fill="#92B5F8"/>
<path d="M365.515 248.112L326.07 281.656C322.27 276.184 320.714 269.468 321.723 262.887L347.629 240.856C354.299 240.905 360.696 243.5 365.509 248.109L365.515 248.112Z" fill="#A7C1E9"/>
<path d="M371.206 256.17L333.141 288.544C331.114 287.222 329.284 285.621 327.706 283.788L367.345 250.073C368.909 251.917 370.208 253.969 371.206 256.17Z" fill="#A7C1E9"/>
<path d="M335.229 240.308C332.861 243.162 332.79 243.927 334.603 247.119C331.788 244.761 331.025 244.689 327.775 246.494C330.147 243.639 330.215 242.871 328.405 239.683C331.268 242.049 332.02 242.115 335.229 240.308Z" fill="white"/>
<path d="M373.128 279.118H123.103C115.699 279.118 109.697 285.108 109.697 292.497V373.743C109.697 381.132 115.699 387.122 123.103 387.122H373.128C380.533 387.122 386.535 381.132 386.535 373.743V292.497C386.535 285.108 380.533 279.118 373.128 279.118Z" fill="#4E73E6"/>
<path d="M254.539 279.118H241.693V387.191H254.539V279.118Z" fill="#2E5BE6"/>
<path d="M370.445 381.268H363.429C363.151 381.268 362.885 381.158 362.689 380.962C362.492 380.766 362.382 380.5 362.382 380.223C362.382 379.946 362.492 379.68 362.689 379.484C362.885 379.288 363.151 379.178 363.429 379.178H370.445C370.723 379.178 370.989 379.288 371.186 379.484C371.382 379.68 371.492 379.946 371.492 380.223C371.492 380.5 371.382 380.766 371.186 380.962C370.989 381.158 370.723 381.268 370.445 381.268ZM356.452 381.268H349.468C349.19 381.268 348.924 381.158 348.727 380.962C348.531 380.766 348.421 380.5 348.421 380.223C348.421 379.946 348.531 379.68 348.727 379.484C348.924 379.288 349.19 379.178 349.468 379.178H356.447C356.724 379.178 356.991 379.288 357.187 379.484C357.383 379.68 357.494 379.946 357.494 380.223C357.494 380.5 357.383 380.766 357.187 380.962C356.991 381.158 356.724 381.268 356.447 381.268H356.452ZM342.494 381.268H335.515C335.237 381.268 334.971 381.158 334.774 380.962C334.578 380.766 334.468 380.5 334.468 380.223C334.468 379.946 334.578 379.68 334.774 379.484C334.971 379.288 335.237 379.178 335.515 379.178H342.494C342.772 379.178 343.038 379.288 343.234 379.484C343.431 379.68 343.541 379.946 343.541 380.223C343.541 380.5 343.431 380.766 343.234 380.962C343.038 381.158 342.772 381.268 342.494 381.268ZM328.536 381.268H321.556C321.279 381.268 321.012 381.158 320.816 380.962C320.62 380.766 320.509 380.5 320.509 380.223C320.509 379.946 320.62 379.68 320.816 379.484C321.012 379.288 321.279 379.178 321.556 379.178H328.536C328.813 379.178 329.079 379.288 329.276 379.484C329.472 379.68 329.582 379.946 329.582 380.223C329.582 380.5 329.472 380.766 329.276 380.962C329.079 381.158 328.813 381.268 328.536 381.268ZM314.58 381.268H307.601C307.323 381.268 307.057 381.158 306.86 380.962C306.664 380.766 306.554 380.5 306.554 380.223C306.554 379.946 306.664 379.68 306.86 379.484C307.057 379.288 307.323 379.178 307.601 379.178H314.571C314.849 379.178 315.115 379.288 315.312 379.484C315.508 379.68 315.618 379.946 315.618 380.223C315.618 380.5 315.508 380.766 315.312 380.962C315.115 381.158 314.849 381.268 314.571 381.268H314.58ZM300.621 381.268H293.642C293.365 381.268 293.098 381.158 292.902 380.962C292.706 380.766 292.595 380.5 292.595 380.223C292.595 379.946 292.706 379.68 292.902 379.484C293.098 379.288 293.365 379.178 293.642 379.178H300.621C300.899 379.178 301.165 379.288 301.362 379.484C301.558 379.68 301.668 379.946 301.668 380.223C301.668 380.5 301.558 380.766 301.362 380.962C301.165 381.158 300.899 381.268 300.621 381.268ZM286.663 381.268H279.675C279.398 381.268 279.131 381.158 278.935 380.962C278.739 380.766 278.628 380.5 278.628 380.223C278.628 379.946 278.739 379.68 278.935 379.484C279.131 379.288 279.398 379.178 279.675 379.178H286.654C286.932 379.178 287.198 379.288 287.395 379.484C287.591 379.68 287.701 379.946 287.701 380.223C287.701 380.5 287.591 380.766 287.395 380.962C287.198 381.158 286.932 381.268 286.654 381.268H286.663ZM272.707 381.268H265.728C265.451 381.268 265.184 381.158 264.988 380.962C264.792 380.766 264.681 380.5 264.681 380.223C264.681 379.946 264.792 379.68 264.988 379.484C265.184 379.288 265.451 379.178 265.728 379.178H272.707C272.985 379.178 273.251 379.288 273.448 379.484C273.644 379.68 273.754 379.946 273.754 380.223C273.754 380.5 273.644 380.766 273.448 380.962C273.251 381.158 272.985 381.268 272.707 381.268ZM258.749 381.268H251.77C251.492 381.268 251.226 381.158 251.029 380.962C250.833 380.766 250.723 380.5 250.723 380.223C250.723 379.946 250.833 379.68 251.029 379.484C251.226 379.288 251.492 379.178 251.77 379.178H258.749C259.027 379.178 259.293 379.288 259.489 379.484C259.686 379.68 259.796 379.946 259.796 380.223C259.796 380.5 259.686 380.766 259.489 380.962C259.293 381.158 259.027 381.268 258.749 381.268ZM244.79 381.268H237.814C237.536 381.268 237.27 381.158 237.074 380.962C236.877 380.766 236.767 380.5 236.767 380.223C236.767 379.946 236.877 379.68 237.074 379.484C237.27 379.288 237.536 379.178 237.814 379.178H244.779C245.057 379.178 245.323 379.288 245.519 379.484C245.716 379.68 245.826 379.946 245.826 380.223C245.826 380.5 245.716 380.766 245.519 380.962C245.323 381.158 245.057 381.268 244.779 381.268H244.79ZM230.835 381.268H223.856C223.578 381.268 223.312 381.158 223.115 380.962C222.919 380.766 222.809 380.5 222.809 380.223C222.809 379.946 222.919 379.68 223.115 379.484C223.312 379.288 223.578 379.178 223.856 379.178H230.835C231.112 379.178 231.379 379.288 231.575 379.484C231.771 379.68 231.882 379.946 231.882 380.223C231.882 380.5 231.771 380.766 231.575 380.962C231.379 381.158 231.112 381.268 230.835 381.268ZM216.876 381.268H209.897C209.619 381.268 209.353 381.158 209.157 380.962C208.961 380.766 208.85 380.5 208.85 380.223C208.85 379.946 208.961 379.68 209.157 379.484C209.353 379.288 209.619 379.178 209.897 379.178H216.876C217.154 379.178 217.42 379.288 217.617 379.484C217.813 379.68 217.923 379.946 217.923 380.223C217.923 380.5 217.813 380.766 217.617 380.962C217.42 381.158 217.154 381.268 216.876 381.268ZM202.918 381.268H195.942C195.664 381.268 195.398 381.158 195.201 380.962C195.005 380.766 194.895 380.5 194.895 380.223C194.895 379.946 195.005 379.68 195.201 379.484C195.398 379.288 195.664 379.178 195.942 379.178H202.918C203.196 379.178 203.462 379.288 203.658 379.484C203.854 379.68 203.965 379.946 203.965 380.223C203.965 380.5 203.854 380.766 203.658 380.962C203.462 381.158 203.196 381.268 202.918 381.268ZM188.962 381.268H181.983C181.705 381.268 181.439 381.158 181.243 380.962C181.046 380.766 180.936 380.5 180.936 380.223C180.936 379.946 181.046 379.68 181.243 379.484C181.439 379.288 181.705 379.178 181.983 379.178H188.962C189.24 379.178 189.506 379.288 189.703 379.484C189.899 379.68 190.009 379.946 190.009 380.223C190.009 380.5 189.899 380.766 189.703 380.962C189.506 381.158 189.24 381.268 188.962 381.268ZM175.004 381.268H168.025C167.747 381.268 167.481 381.158 167.284 380.962C167.088 380.766 166.978 380.5 166.978 380.223C166.978 379.946 167.088 379.68 167.284 379.484C167.481 379.288 167.747 379.178 168.025 379.178H175.004C175.281 379.178 175.548 379.288 175.744 379.484C175.94 379.68 176.051 379.946 176.051 380.223C176.051 380.5 175.94 380.766 175.744 380.962C175.548 381.158 175.281 381.268 175.004 381.268ZM161.048 381.268H154.069C153.791 381.268 153.525 381.158 153.329 380.962C153.132 380.766 153.022 380.5 153.022 380.223C153.022 379.946 153.132 379.68 153.329 379.484C153.525 379.288 153.791 379.178 154.069 379.178H161.048C161.326 379.178 161.592 379.288 161.788 379.484C161.985 379.68 162.095 379.946 162.095 380.223C162.095 380.5 161.985 380.766 161.788 380.962C161.592 381.158 161.326 381.268 161.048 381.268ZM147.09 381.268H140.111C139.833 381.268 139.567 381.158 139.37 380.962C139.174 380.766 139.064 380.5 139.064 380.223C139.064 379.946 139.174 379.68 139.37 379.484C139.567 379.288 139.833 379.178 140.111 379.178H147.09C147.367 379.178 147.634 379.288 147.83 379.484C148.026 379.68 148.137 379.946 148.137 380.223C148.137 380.5 148.026 380.766 147.83 380.962C147.634 381.158 147.367 381.268 147.09 381.268ZM133.131 381.268H126.152C125.874 381.268 125.608 381.158 125.412 380.962C125.215 380.766 125.105 380.5 125.105 380.223C125.105 379.946 125.215 379.68 125.412 379.484C125.608 379.288 125.874 379.178 126.152 379.178H133.131C133.409 379.178 133.675 379.288 133.872 379.484C134.068 379.68 134.178 379.946 134.178 380.223C134.178 380.5 134.068 380.766 133.872 380.962C133.675 381.158 133.409 381.268 133.131 381.268ZM119.802 378.861C119.533 378.863 119.274 378.761 119.078 378.576C118.132 377.677 117.377 376.597 116.859 375.4C116.34 374.204 116.07 372.915 116.064 371.611C116.061 371.333 116.169 371.066 116.364 370.868C116.559 370.67 116.824 370.558 117.102 370.555C117.378 370.555 117.643 370.663 117.839 370.858C118.035 371.052 118.147 371.315 118.149 371.591C118.156 372.616 118.371 373.629 118.78 374.569C119.188 375.509 119.783 376.358 120.529 377.063C120.679 377.207 120.783 377.393 120.827 377.596C120.871 377.799 120.853 378.011 120.776 378.205C120.698 378.398 120.565 378.563 120.392 378.68C120.22 378.797 120.016 378.86 119.808 378.861H119.802ZM376.689 378.602C376.484 378.602 376.283 378.542 376.112 378.429C375.94 378.316 375.806 378.156 375.726 377.967C375.646 377.778 375.623 377.57 375.66 377.369C375.698 377.168 375.794 376.982 375.937 376.835C377.321 375.408 378.092 373.499 378.088 371.514V371.228C378.088 370.951 378.198 370.685 378.395 370.49C378.591 370.294 378.857 370.184 379.135 370.184C379.413 370.184 379.679 370.294 379.875 370.49C380.072 370.685 380.182 370.951 380.182 371.228V371.514C380.187 374.039 379.205 376.467 377.445 378.282C377.347 378.383 377.23 378.464 377.1 378.519C376.97 378.574 376.83 378.602 376.689 378.602ZM117.096 365.679C116.819 365.679 116.552 365.569 116.356 365.373C116.16 365.177 116.049 364.911 116.049 364.634V357.672C116.049 357.395 116.16 357.129 116.356 356.933C116.552 356.737 116.819 356.627 117.096 356.627C117.374 356.627 117.64 356.737 117.836 356.933C118.033 357.129 118.143 357.395 118.143 357.672V364.634C118.143 364.911 118.033 365.177 117.836 365.373C117.64 365.569 117.374 365.679 117.096 365.679ZM379.135 365.314C378.997 365.314 378.861 365.287 378.734 365.234C378.607 365.182 378.492 365.105 378.395 365.008C378.297 364.911 378.22 364.795 378.168 364.669C378.115 364.542 378.088 364.406 378.088 364.269V357.304C378.088 357.027 378.198 356.761 378.395 356.565C378.591 356.369 378.857 356.259 379.135 356.259C379.413 356.259 379.679 356.369 379.875 356.565C380.072 356.761 380.182 357.027 380.182 357.304V364.269C380.182 364.406 380.155 364.542 380.102 364.669C380.05 364.795 379.972 364.911 379.875 365.008C379.778 365.105 379.663 365.182 379.536 365.234C379.409 365.287 379.272 365.314 379.135 365.314ZM117.096 351.752C116.819 351.752 116.552 351.642 116.356 351.446C116.16 351.25 116.049 350.984 116.049 350.707V343.742C116.049 343.465 116.16 343.199 116.356 343.003C116.552 342.807 116.819 342.697 117.096 342.697C117.374 342.697 117.64 342.807 117.836 343.003C118.033 343.199 118.143 343.465 118.143 343.742V350.707C118.143 350.984 118.033 351.25 117.836 351.446C117.64 351.642 117.374 351.752 117.096 351.752ZM379.135 351.384C378.857 351.384 378.591 351.273 378.395 351.077C378.198 350.882 378.088 350.616 378.088 350.339V343.385C378.088 343.108 378.198 342.842 378.395 342.646C378.591 342.45 378.857 342.34 379.135 342.34C379.413 342.34 379.679 342.45 379.875 342.646C380.072 342.842 380.182 343.108 380.182 343.385V350.35C380.177 350.624 380.065 350.886 379.869 351.078C379.673 351.27 379.41 351.378 379.135 351.378V351.384ZM117.096 337.822C116.819 337.822 116.552 337.712 116.356 337.516C116.16 337.32 116.049 337.054 116.049 336.777V329.812C116.049 329.535 116.16 329.269 116.356 329.073C116.552 328.877 116.819 328.767 117.096 328.767C117.374 328.767 117.64 328.877 117.836 329.073C118.033 329.269 118.143 329.535 118.143 329.812V336.777C118.143 337.054 118.033 337.32 117.836 337.516C117.64 337.712 117.374 337.822 117.096 337.822ZM379.135 337.453C378.997 337.453 378.861 337.426 378.734 337.374C378.607 337.321 378.492 337.244 378.395 337.147C378.297 337.05 378.22 336.935 378.168 336.808C378.115 336.682 378.088 336.546 378.088 336.409V329.446C378.088 329.169 378.198 328.904 378.395 328.708C378.591 328.512 378.857 328.402 379.135 328.402C379.413 328.402 379.679 328.512 379.875 328.708C380.072 328.904 380.182 329.169 380.182 329.446V336.409C380.182 336.546 380.155 336.682 380.102 336.808C380.05 336.935 379.972 337.05 379.875 337.147C379.778 337.244 379.663 337.321 379.536 337.374C379.409 337.426 379.272 337.453 379.135 337.453ZM117.096 323.891C116.819 323.891 116.552 323.781 116.356 323.585C116.16 323.39 116.049 323.124 116.049 322.847V315.884C116.049 315.607 116.16 315.342 116.356 315.146C116.552 314.95 116.819 314.84 117.096 314.84C117.374 314.84 117.64 314.95 117.836 315.146C118.033 315.342 118.143 315.607 118.143 315.884V322.847C118.143 322.984 118.116 323.12 118.063 323.246C118.011 323.373 117.934 323.488 117.836 323.585C117.739 323.682 117.624 323.759 117.497 323.812C117.37 323.864 117.234 323.891 117.096 323.891ZM379.135 323.526C378.857 323.526 378.591 323.416 378.395 323.22C378.198 323.024 378.088 322.758 378.088 322.481V315.516C378.088 315.239 378.198 314.973 378.395 314.777C378.591 314.582 378.857 314.471 379.135 314.471C379.413 314.471 379.679 314.582 379.875 314.777C380.072 314.973 380.182 315.239 380.182 315.516V322.481C380.182 322.758 380.072 323.024 379.875 323.22C379.679 323.416 379.413 323.526 379.135 323.526ZM117.096 309.964C116.819 309.964 116.552 309.854 116.356 309.658C116.16 309.462 116.049 309.196 116.049 308.919V301.954C116.049 301.677 116.16 301.411 116.356 301.216C116.552 301.02 116.819 300.91 117.096 300.91C117.374 300.91 117.64 301.02 117.836 301.216C118.033 301.411 118.143 301.677 118.143 301.954V308.919C118.143 309.196 118.033 309.462 117.836 309.658C117.64 309.854 117.374 309.964 117.096 309.964ZM379.135 309.596C378.857 309.596 378.591 309.486 378.395 309.29C378.198 309.094 378.088 308.828 378.088 308.551V301.586C378.088 301.309 378.198 301.043 378.395 300.847C378.591 300.651 378.857 300.541 379.135 300.541C379.413 300.541 379.679 300.651 379.875 300.847C380.072 301.043 380.182 301.309 380.182 301.586V308.56C380.18 308.835 380.068 309.099 379.872 309.293C379.676 309.487 379.411 309.596 379.135 309.596ZM117.096 296.034C116.819 296.034 116.552 295.924 116.356 295.728C116.16 295.532 116.049 295.266 116.049 294.989V294.727C116.044 292.193 117.032 289.758 118.801 287.941C118.995 287.746 119.258 287.635 119.534 287.632C119.809 287.629 120.075 287.734 120.273 287.925C120.471 288.117 120.586 288.378 120.592 288.653C120.598 288.928 120.495 289.195 120.306 289.394C118.915 290.822 118.139 292.736 118.143 294.727V294.989C118.143 295.266 118.033 295.532 117.836 295.728C117.64 295.924 117.374 296.034 117.096 296.034ZM379.135 295.666C378.86 295.667 378.595 295.559 378.399 295.366C378.203 295.173 378.091 294.91 378.088 294.635C378.079 293.61 377.862 292.598 377.451 291.659C377.04 290.719 376.444 289.872 375.697 289.169C375.583 289.079 375.49 288.967 375.422 288.839C375.354 288.711 375.314 288.57 375.303 288.426C375.293 288.282 375.312 288.137 375.361 288C375.409 287.864 375.486 287.739 375.585 287.634C375.684 287.529 375.805 287.445 375.938 287.388C376.072 287.332 376.215 287.304 376.36 287.305C376.505 287.307 376.648 287.339 376.78 287.399C376.912 287.459 377.03 287.545 377.127 287.653C378.078 288.548 378.837 289.626 379.361 290.821C379.883 292.017 380.159 293.305 380.17 294.61C380.172 294.747 380.146 294.883 380.095 295.01C380.044 295.138 379.968 295.254 379.872 295.352C379.776 295.45 379.661 295.528 379.535 295.582C379.408 295.636 379.272 295.664 379.135 295.666ZM370.062 287.062H363.083C362.805 287.062 362.539 286.952 362.342 286.756C362.146 286.56 362.036 286.295 362.036 286.017C362.036 285.74 362.146 285.475 362.342 285.279C362.539 285.083 362.805 284.973 363.083 284.973H370.062C370.34 284.973 370.606 285.083 370.802 285.279C370.999 285.475 371.109 285.74 371.109 286.017C371.109 286.295 370.999 286.56 370.802 286.756C370.606 286.952 370.34 287.062 370.062 287.062ZM356.103 287.062H349.124C348.847 287.062 348.58 286.952 348.384 286.756C348.188 286.56 348.077 286.295 348.077 286.017C348.077 285.74 348.188 285.475 348.384 285.279C348.58 285.083 348.847 284.973 349.124 284.973H356.101C356.378 284.973 356.645 285.083 356.841 285.279C357.037 285.475 357.148 285.74 357.148 286.017C357.148 286.295 357.037 286.56 356.841 286.756C356.645 286.952 356.378 287.062 356.101 287.062H356.103ZM342.148 287.062H335.166C334.888 287.062 334.622 286.952 334.426 286.756C334.229 286.56 334.119 286.295 334.119 286.017C334.119 285.74 334.229 285.475 334.426 285.279C334.622 285.083 334.888 284.973 335.166 284.973H342.145C342.423 284.973 342.689 285.083 342.885 285.279C343.082 285.475 343.192 285.74 343.192 286.017C343.192 286.295 343.082 286.56 342.885 286.756C342.689 286.952 342.423 287.062 342.145 287.062H342.148ZM328.189 287.062H321.21C320.933 287.062 320.666 286.952 320.47 286.756C320.274 286.56 320.163 286.295 320.163 286.017C320.163 285.74 320.274 285.475 320.47 285.279C320.666 285.083 320.933 284.973 321.21 284.973H328.189C328.467 284.973 328.733 285.083 328.93 285.279C329.126 285.475 329.236 285.74 329.236 286.017C329.236 286.295 329.126 286.56 328.93 286.756C328.733 286.952 328.467 287.062 328.189 287.062ZM314.231 287.062H307.255C306.977 287.062 306.711 286.952 306.514 286.756C306.318 286.56 306.208 286.295 306.208 286.017C306.208 285.74 306.318 285.475 306.514 285.279C306.711 285.083 306.977 284.973 307.255 284.973H314.231C314.509 284.973 314.775 285.083 314.971 285.279C315.168 285.475 315.278 285.74 315.278 286.017C315.278 286.295 315.168 286.56 314.971 286.756C314.775 286.952 314.509 287.062 314.231 287.062ZM300.275 287.062H293.296C293.018 287.062 292.752 286.952 292.556 286.756C292.36 286.56 292.249 286.295 292.249 286.017C292.249 285.74 292.36 285.475 292.556 285.279C292.752 285.083 293.018 284.973 293.296 284.973H300.27C300.547 284.973 300.814 285.083 301.01 285.279C301.206 285.475 301.317 285.74 301.317 286.017C301.317 286.295 301.206 286.56 301.01 286.756C300.814 286.952 300.547 287.062 300.27 287.062H300.275ZM286.317 287.062H279.338C279.06 287.062 278.794 286.952 278.597 286.756C278.401 286.56 278.291 286.295 278.291 286.017C278.291 285.74 278.401 285.475 278.597 285.279C278.794 285.083 279.06 284.973 279.338 284.973H286.317C286.595 284.973 286.861 285.083 287.057 285.279C287.253 285.475 287.364 285.74 287.364 286.017C287.364 286.295 287.253 286.56 287.057 286.756C286.861 286.952 286.595 287.062 286.317 287.062ZM272.361 287.062H265.373C265.096 287.062 264.83 286.952 264.633 286.756C264.437 286.56 264.327 286.295 264.327 286.017C264.327 285.74 264.437 285.475 264.633 285.279C264.83 285.083 265.096 284.973 265.373 284.973H272.353C272.63 284.973 272.897 285.083 273.093 285.279C273.289 285.475 273.4 285.74 273.4 286.017C273.4 286.295 273.289 286.56 273.093 286.756C272.897 286.952 272.63 287.062 272.353 287.062H272.361ZM258.403 287.062H251.424C251.146 287.062 250.88 286.952 250.683 286.756C250.487 286.56 250.377 286.295 250.377 286.017C250.377 285.74 250.487 285.475 250.683 285.279C250.88 285.083 251.146 284.973 251.424 284.973H258.403C258.68 284.973 258.947 285.083 259.143 285.279C259.339 285.475 259.45 285.74 259.45 286.017C259.45 286.295 259.339 286.56 259.143 286.756C258.947 286.952 258.68 287.062 258.403 287.062ZM244.444 287.062H237.465C237.187 287.062 236.921 286.952 236.725 286.756C236.529 286.56 236.418 286.295 236.418 286.017C236.418 285.74 236.529 285.475 236.725 285.279C236.921 285.083 237.187 284.973 237.465 284.973H244.444C244.722 284.973 244.988 285.083 245.185 285.279C245.381 285.475 245.491 285.74 245.491 286.017C245.491 286.295 245.381 286.56 245.185 286.756C244.988 286.952 244.722 287.062 244.444 287.062ZM230.489 287.062H223.51C223.232 287.062 222.966 286.952 222.769 286.756C222.573 286.56 222.463 286.295 222.463 286.017C222.463 285.74 222.573 285.475 222.769 285.279C222.966 285.083 223.232 284.973 223.51 284.973H230.477C230.755 284.973 231.021 285.083 231.218 285.279C231.414 285.475 231.524 285.74 231.524 286.017C231.524 286.295 231.414 286.56 231.218 286.756C231.021 286.952 230.755 287.062 230.477 287.062H230.489ZM216.53 287.062H209.551C209.273 287.062 209.007 286.952 208.811 286.756C208.614 286.56 208.504 286.295 208.504 286.017C208.504 285.74 208.614 285.475 208.811 285.279C209.007 285.083 209.273 284.973 209.551 284.973H216.53C216.808 284.973 217.074 285.083 217.271 285.279C217.467 285.475 217.577 285.74 217.577 286.017C217.577 286.295 217.467 286.56 217.271 286.756C217.074 286.952 216.808 287.062 216.53 287.062ZM202.572 287.062H195.581C195.303 287.062 195.037 286.952 194.841 286.756C194.645 286.56 194.534 286.295 194.534 286.017C194.534 285.74 194.645 285.475 194.841 285.279C195.037 285.083 195.303 284.973 195.581 284.973H202.56C202.838 284.973 203.104 285.083 203.301 285.279C203.497 285.475 203.607 285.74 203.607 286.017C203.607 286.295 203.497 286.56 203.301 286.756C203.104 286.952 202.838 287.062 202.56 287.062H202.572ZM188.616 287.062H181.637C181.359 287.062 181.093 286.952 180.897 286.756C180.7 286.56 180.59 286.295 180.59 286.017C180.59 285.74 180.7 285.475 180.897 285.279C181.093 285.083 181.359 284.973 181.637 284.973H188.616C188.894 284.973 189.16 285.083 189.356 285.279C189.553 285.475 189.663 285.74 189.663 286.017C189.663 286.295 189.553 286.56 189.356 286.756C189.16 286.952 188.894 287.062 188.616 287.062ZM174.658 287.062H167.679C167.401 287.062 167.135 286.952 166.938 286.756C166.742 286.56 166.632 286.295 166.632 286.017C166.632 285.74 166.742 285.475 166.938 285.279C167.135 285.083 167.401 284.973 167.679 284.973H174.658C174.935 284.973 175.202 285.083 175.398 285.279C175.594 285.475 175.705 285.74 175.705 286.017C175.705 286.295 175.594 286.56 175.398 286.756C175.202 286.952 174.935 287.062 174.658 287.062ZM160.699 287.062H153.72C153.442 287.062 153.176 286.952 152.98 286.756C152.783 286.56 152.673 286.295 152.673 286.017C152.673 285.74 152.783 285.475 152.98 285.279C153.176 285.083 153.442 284.973 153.72 284.973H160.685C160.963 284.973 161.229 285.083 161.425 285.279C161.622 285.475 161.732 285.74 161.732 286.017C161.732 286.295 161.622 286.56 161.425 286.756C161.229 286.952 160.963 287.062 160.685 287.062H160.699ZM146.744 287.062H139.764C139.487 287.062 139.22 286.952 139.024 286.756C138.828 286.56 138.718 286.295 138.718 286.017C138.718 285.74 138.828 285.475 139.024 285.279C139.22 285.083 139.487 284.973 139.764 284.973H146.744C147.021 284.973 147.288 285.083 147.484 285.279C147.68 285.475 147.791 285.74 147.791 286.017C147.791 286.295 147.68 286.56 147.484 286.756C147.288 286.952 147.021 287.062 146.744 287.062ZM132.785 287.062H125.823C125.545 287.062 125.278 286.952 125.08 286.757C124.882 286.561 124.77 286.295 124.768 286.017C124.767 285.881 124.792 285.745 124.844 285.619C124.895 285.492 124.971 285.377 125.068 285.28C125.164 285.183 125.278 285.106 125.405 285.053C125.531 285 125.666 284.973 125.803 284.973H132.782C133.06 284.973 133.326 285.083 133.523 285.279C133.719 285.475 133.829 285.74 133.829 286.017C133.829 286.295 133.719 286.56 133.523 286.756C133.326 286.952 133.06 287.062 132.782 287.062H132.785Z" fill="#7292F7"/>
<path d="M89.5772 160.723C91.4352 163.176 92.5225 166.125 92.7016 169.195C92.8807 172.265 92.1436 175.319 90.5835 177.971C89.0234 180.622 86.7103 182.753 83.9368 184.093C81.1633 185.433 78.0539 185.922 75.0018 185.499C71.9497 185.075 69.092 183.758 66.7901 181.714C64.4881 179.669 62.8453 176.99 62.0694 174.014C61.2935 171.037 61.4193 167.899 62.4309 164.994C63.4426 162.089 65.2946 159.549 67.7528 157.695C69.3851 156.463 71.2444 155.565 73.2245 155.051C75.2047 154.537 77.267 154.417 79.2935 154.698C81.3201 154.979 83.2714 155.656 85.0359 156.69C86.8003 157.724 88.3435 159.094 89.5772 160.723Z" fill="white"/>
<path d="M83.625 180.302L81.8373 177.939C80.4586 178.944 78.7338 179.583 77.4695 179.617L76.846 177.619C78.3443 177.512 79.7801 176.977 80.982 176.078C82.6467 174.825 83.0443 173.015 82.0346 171.682C81.0621 170.394 79.5433 170.289 77.2779 170.897C74.1773 171.753 71.8861 171.802 70.3444 169.769C68.8742 167.825 69.1402 165.31 71.0309 163.332L69.2432 160.98L70.6962 159.884L72.4124 162.153C73.4884 161.356 74.7506 160.846 76.0794 160.672L76.6514 162.67C75.357 162.812 74.1264 163.306 73.0932 164.097C71.2912 165.459 71.4256 167.049 72.135 167.982C73.056 169.198 74.3832 169.153 77.0605 168.456C80.2069 167.62 82.3578 167.914 83.9253 169.998C85.324 171.844 85.3555 174.548 83.2331 176.768L85.078 179.201L83.625 180.302Z" fill="#E3EAFF"/>
<path d="M329.732 91.5576L312.061 97.2952C312.362 98.2201 312.663 99.145 312.964 100.07C313.402 101.409 317.733 101.212 322.641 99.6103C327.549 98.0089 331.17 95.6396 330.736 94.298C330.704 94.1838 329.732 91.5576 329.732 91.5576Z" fill="#C2D0FF"/>
<path d="M329.889 91.6719C330.326 93.0135 326.702 95.3828 321.797 96.9842C316.891 98.5856 312.555 98.7826 312.12 97.4438C311.686 96.105 315.307 93.7329 320.212 92.1315C325.118 90.5301 329.445 90.3331 329.889 91.6719Z" fill="#D4DEFF"/>
<path d="M122.171 141.855L105.346 133.982C104.932 134.861 104.518 135.741 104.105 136.622C103.504 137.898 106.808 140.707 111.479 142.902C116.15 145.097 120.423 145.825 121.024 144.549C121.078 144.424 122.171 141.855 122.171 141.855Z" fill="#C2D0FF"/>
<path d="M122.199 142.049C121.598 143.325 117.337 142.585 112.654 140.399C107.972 138.212 104.68 135.403 105.28 134.119C105.881 132.834 110.143 133.582 114.825 135.769C119.508 137.955 122.797 140.77 122.199 142.049Z" fill="#D4DEFF"/>
<path d="M143.827 178.321L126.433 184.85L127.463 187.579C127.961 188.9 132.28 188.501 137.108 186.688C141.936 184.875 145.451 182.335 144.954 181.016C144.908 180.896 143.827 178.321 143.827 178.321Z" fill="#C2D0FF"/>
<path d="M143.981 178.433C144.476 179.752 140.963 182.289 136.135 184.102C131.307 185.915 126.982 186.314 126.487 184.995C125.992 183.677 129.505 181.136 134.333 179.323C139.161 177.511 143.483 177.114 143.981 178.433Z" fill="#D4DEFF"/>
</svg>
